<mxfile host="app.diagrams.net" modified="2024-06-21T07:34:27.366Z" agent="Mozilla/5.0 (Windows NT 10.0; Win64; x64) AppleWebKit/537.36 (KHTML, like Gecko) Chrome/125.0.0.0 Safari/537.36" version="24.6.0" etag="Q_yPjMyLc9PUnfMIhkhq" type="github">
  <diagram name="PÃ¡gina-1" id="snwaMc80KVqHLZ7jn9o1">
    <mxGraphModel>
      <root>
        <mxCell id="0" />
        <mxCell id="1" parent="0" />
      </root>
    </mxGraphModel>
  </diagram>
</mxfile>
